<?xml version="1.0" encoding="UTF-8"?>
<!DOCTYPE svg PUBLIC "-//W3C//DTD SVG 1.1//EN" "http://www.w3.org/Graphics/SVG/1.1/DTD/svg11.dtd">
<!-- Creator: CorelDRAW -->
<svg xmlns="http://www.w3.org/2000/svg" xml:space="preserve" width="4.84797in" height="1.08047in" version="1.1" style="shape-rendering:geometricPrecision; text-rendering:geometricPrecision; image-rendering:optimizeQuality; fill-rule:evenodd; clip-rule:evenodd"
viewBox="0 0 4217.96 940.06"
 xmlns:xlink="http://www.w3.org/1999/xlink"
 xmlns:xodm="http://www.corel.com/coreldraw/odm/2003">
 <defs>
  <style type="text/css">
   <![CDATA[
    .fil1 {fill:url(#id0)}
    .fil0 {fill:url(#id1);fill-rule:nonzero}
    .fil3 {fill:url(#id2);fill-rule:nonzero}
    .fil2 {fill:url(#id3);fill-rule:nonzero}
   ]]>
  </style>
  <linearGradient id="id0" gradientUnits="userSpaceOnUse" x1="314.08" y1="805.37" x2="514.84" y2="219.69">
   <stop offset="0" style="stop-opacity:1; stop-color:#0790DE"/>
   <stop offset="1" style="stop-opacity:1; stop-color:#6BB3FF"/>
  </linearGradient>
  <linearGradient id="id1" gradientUnits="userSpaceOnUse" x1="245.26" y1="1490.29" x2="433.66" y2="-33.08">
   <stop offset="0" style="stop-opacity:1; stop-color:#ED3237"/>
   <stop offset="1" style="stop-opacity:1; stop-color:#FAA954"/>
  </linearGradient>
  <linearGradient id="id2" gradientUnits="objectBoundingBox" xlink:href="#id1" x1="43.837%" y1="159.691%" x2="45.4306%" y2="0%">
  </linearGradient>
  <linearGradient id="id3" gradientUnits="objectBoundingBox" xlink:href="#id0" x1="50.6208%" y1="89.82%" x2="53.8222%" y2="0%">
  </linearGradient>
 </defs>
 <g id="Layer_x0020_1">
  <metadata id="CorelCorpID_0Corel-Layer"/>
  <g id="_1715774899216">
   <g>
    <path class="fil0" d="M569.45 131.31l-36.01 0c-12.73,-74.45 -77.73,-131.31 -155.75,-131.31 -78.01,0 -143.01,56.86 -155.75,131.31l-30.8 0c-90.77,0 -164.54,73.77 -164.54,164.49l-26.6 479.72c0,90.77 73.77,164.54 164.49,164.54l431.51 0c90.77,0 164.54,-73.77 164.54,-164.49l-26.6 -479.72c0,-90.77 -73.77,-164.54 -164.49,-164.54zm-100.78 0l-181.95 0c11.57,-39.31 47.98,-68.11 90.97,-68.11 42.99,0 79.41,28.8 90.97,68.11zm229.54 644.27c0,50.85 -41.33,102.16 -92.18,102.16l-451.46 0c-50.89,0 -92.23,-51.31 -92.23,-102.16l26.6 -479.72c0,-50.85 41.33,-102.16 92.18,-102.16l398.26 -0c50.84,0 92.18,51.31 92.18,102.16l26.65 479.72z"/>
    <path class="fil1" d="M154.5 374.7l9.25 76.54 27.05 59.63c0.7,1.53 0.62,3.3 -0.2,4.76 -0.83,1.47 -2.3,2.45 -3.96,2.65l-43.44 5.25c-1.72,0.21 -3.43,-0.44 -4.58,-1.73 -1.15,-1.29 -1.59,-3.07 -1.18,-4.76l15.83 -64.68 -9.96 -82.44c-2.68,-1.22 -8.59,-2.28 -4.16,-5.26 0.64,-0.43 1.46,-0.89 2.39,-1.47 255.03,-157.81 166.11,-144.34 445.74,-54.23 8.25,2.66 -47.9,82.51 -60.96,62.73 -55.13,-83.43 -273.71,-71.24 -302.17,33.73 -4.72,17.4 -52.16,-20.73 -69.63,-30.72zm235.38 456.65c-41.19,0 -77.76,-8.88 -109.72,-26.63 -31.96,-17.75 -55.51,-43.2 -70.66,-76.34l73.85 -36.93c8.52,18.94 21.9,33.38 40.12,43.32 18.23,9.94 40.36,14.91 66.4,14.91 17.04,0 32.19,-2.37 45.45,-7.1 13.26,-4.73 23.79,-11.83 31.6,-21.31 7.81,-9.47 11.72,-20.83 11.72,-34.09 0,-15.62 -4.26,-27.46 -12.78,-35.51 -8.52,-8.05 -20,-14.09 -34.44,-18.11 -14.44,-4.02 -30.65,-7.45 -48.65,-10.3 -17.99,-3.31 -36.57,-7.69 -55.74,-13.14 -19.18,-5.44 -37.05,-13.38 -53.62,-23.79 -16.57,-10.42 -29.94,-24.03 -40.12,-40.83 -10.18,-16.81 -15.27,-38.23 -15.27,-64.27 0,-27.46 7.46,-51.84 22.37,-73.15 14.91,-21.31 35.03,-38.23 60.36,-50.78 25.33,-12.54 53.62,-18.82 84.86,-18.82 38.35,0 72.91,8.64 103.68,25.92 30.77,17.28 53.5,42.49 68.18,75.63l-73.15 36.93c-8.52,-17.52 -21.42,-31.48 -38.7,-41.9 -17.28,-10.42 -38.47,-15.62 -63.56,-15.62 -14.2,0 -27.11,2.48 -38.7,7.46 -11.6,4.97 -20.83,11.83 -27.69,20.59 -6.86,8.76 -10.3,18.82 -10.3,30.18 0,15.15 4.61,26.87 13.85,35.15 9.23,8.29 21.31,14.68 36.22,19.18 14.91,4.5 31.6,8.4 50.07,11.72 17.99,3.31 36.33,7.69 55.04,13.14 18.7,5.44 36.1,13.38 52.2,23.79 16.1,10.42 29.12,24.03 39.06,40.83 9.94,16.81 14.91,38.47 14.91,64.98 0,27.93 -7.93,52.79 -23.79,74.56 -15.86,21.78 -37.05,38.94 -63.56,51.49 -26.51,12.55 -56.34,18.82 -89.48,18.82z"/>
   </g>
   <g>
    <path class="fil2" d="M1104.41 828.87c-49.92,0 -94.18,-10.5 -132.76,-31.49 -38.58,-20.99 -66.66,-51.63 -84.25,-91.91l88.5 -44.25c10.21,22.69 26.24,39.85 48.08,51.49 21.84,11.63 48.65,17.45 80.42,17.45 19.86,0 37.59,-2.84 53.19,-8.51 15.6,-5.67 28.08,-14.04 37.44,-25.1 9.36,-11.06 14.04,-24.82 14.04,-41.27 0,-18.15 -5.11,-31.91 -15.32,-41.28 -10.21,-9.36 -23.97,-16.45 -41.28,-21.28 -17.31,-4.82 -36.45,-9.22 -57.44,-13.19 -21.56,-3.97 -43.83,-9.22 -66.81,-15.74 -22.98,-6.53 -44.54,-15.89 -64.68,-28.08 -20.14,-12.2 -36.31,-28.51 -48.51,-48.93 -12.2,-20.43 -18.29,-46.24 -18.29,-77.44 0,-32.34 8.93,-61.55 26.81,-87.65 17.87,-26.1 42.13,-46.66 72.76,-61.7 30.64,-15.04 64.96,-22.55 102.97,-22.55 45.39,0 86.52,10.35 123.4,31.06 36.88,20.71 64.11,51.2 81.7,91.49l-88.5 45.1c-10.21,-20.99 -25.39,-37.73 -45.53,-50.21 -20.14,-12.48 -45.25,-18.72 -75.31,-18.72 -17.59,0 -33.19,2.84 -46.8,8.51 -13.62,5.67 -24.54,13.76 -32.76,24.25 -8.23,10.5 -12.34,22.84 -12.34,37.02 0,17.59 5.39,31.35 16.17,41.27 10.78,9.93 25.25,17.45 43.4,22.55 18.15,5.11 38.01,9.93 59.57,14.47 21.56,3.97 43.69,9.22 66.38,15.74 22.69,6.52 43.54,15.88 62.55,28.08 19,12.2 34.47,28.51 46.38,48.93 11.91,20.43 17.87,46.24 17.87,77.44 0,34.04 -9.36,64.11 -28.08,90.21 -18.72,26.1 -44.11,46.66 -76.16,61.7 -32.05,15.03 -67.66,22.55 -106.8,22.55z"/>
    <path id="_1" class="fil2" d="M1493.05 246.77l106.38 0 0 571.88 -106.38 0 0 -571.88zm278.28 0l0 98.72 -449.34 0 0 -98.72 449.34 0z"/>
    <path id="_2" class="fil2" d="M2044.24 827.16c-83.4,0 -144.67,-23.12 -183.82,-69.36 -39.15,-46.24 -58.72,-109.64 -58.72,-190.2l0 -320.83 106.38 0 0 318.28c0,52.76 11.2,92.9 33.62,120.42 22.41,27.52 56.59,41.27 102.55,41.27 45.95,0 80.14,-13.76 102.55,-41.27 22.41,-27.52 33.61,-67.66 33.61,-120.42l0 -318.28 106.38 0 0 320.83c0,80.56 -19.86,143.96 -59.57,190.2 -39.71,46.24 -100.71,69.36 -182.97,69.36z"/>
    <path class="fil3" d="M2456.05 818.66l-108.08 0 78.29 -498.69c4.54,-27.23 15.89,-47.94 34.04,-62.13 18.15,-14.18 40.28,-21.28 66.38,-21.28 23.26,0 43.83,5.68 61.7,17.02 17.87,11.35 30.21,29.5 37.02,54.47l102.12 376.15c1.13,4.54 2.84,6.81 5.1,6.81 1.14,0 1.99,-0.42 2.56,-1.27 0.57,-0.85 1.13,-2.7 1.7,-5.53l101.27 -374.45c6.81,-24.96 19.58,-43.4 38.3,-55.31 18.72,-11.92 39.71,-17.87 62.98,-17.87 25.53,0 47.09,7.37 64.68,22.13 17.59,14.75 28.37,36.02 32.34,63.83l70.63 496.14 -107.23 0 -58.72 -462.1c-0.57,-3.97 -1.42,-7.09 -2.55,-9.36 -1.13,-2.27 -3.4,-3.4 -6.81,-3.4 -2.27,0 -4.25,0.99 -5.96,2.98 -1.7,1.99 -3.12,4.68 -4.25,8.08l-111.48 393.17c-5.68,19.86 -15.46,34.61 -29.36,44.25 -13.9,9.65 -29.93,14.47 -48.08,14.47 -17.59,0 -33.9,-4.68 -48.93,-14.04 -15.03,-9.36 -24.82,-23.4 -29.36,-42.13l-111.48 -396.57c-0.57,-3.97 -1.7,-6.67 -3.4,-8.09 -1.7,-1.42 -3.69,-2.13 -5.96,-2.13 -2.84,0 -5.1,0.99 -6.81,2.98 -1.7,1.99 -2.84,5.25 -3.4,9.79l-67.23 462.1z"/>
    <path id="_1_0" class="fil3" d="M3568.91 691l-332.74 0 0 -95.31 332.74 0 0 95.31zm-440.83 127.65l154.04 -496.14c9.08,-28.93 24.25,-50.49 45.53,-64.68 21.28,-14.18 44.68,-21.28 70.21,-21.28 26.1,0 49.64,7.09 70.63,21.28 20.99,14.18 36.02,35.74 45.1,64.68l154.04 496.14 -108.08 0 -136.16 -464.65c-4.54,-14.75 -12.76,-22.13 -24.68,-22.13 -12.48,0 -20.99,7.37 -25.53,22.13l-137.01 464.65 -108.08 0z"/>
    <path id="_2_1" class="fil3" d="M4217.96 818.66l-130.21 0 -144.67 -179.57c-13.62,-18.15 -23.97,-35.88 -31.06,-53.19 -7.09,-17.31 -10.64,-34.47 -10.64,-51.49 0,-17.59 3.4,-35.18 10.21,-52.76 6.81,-17.59 17.31,-35.18 31.49,-52.76l148.08 -182.12 121.69 0 -171.05 211.9c-11.35,14.18 -20,26.95 -25.96,38.3 -5.96,11.35 -8.93,22.41 -8.93,33.19 0,10.78 2.98,21.7 8.93,32.77 5.96,11.06 14.61,23.97 25.96,38.72l176.16 217.01zm-385.51 0l-106.38 0 0 -571.88 106.38 0 0 571.88zm116.59 -333.6l0 97.87 -153.18 0 0 -97.87 153.18 0z"/>
   </g>
  </g>
 </g>
</svg>
