<?xml version="1.0" encoding="UTF-8"?>
<!DOCTYPE svg PUBLIC "-//W3C//DTD SVG 1.1//EN" "http://www.w3.org/Graphics/SVG/1.1/DTD/svg11.dtd">
<!-- Creator: CorelDRAW -->
<svg xmlns="http://www.w3.org/2000/svg" xml:space="preserve" width="3.58731in" height="2.66919in" version="1.1" style="shape-rendering:geometricPrecision; text-rendering:geometricPrecision; image-rendering:optimizeQuality; fill-rule:evenodd; clip-rule:evenodd"
viewBox="0 0 4617.35 3435.6"
 xmlns:xlink="http://www.w3.org/1999/xlink"
 xmlns:xodm="http://www.corel.com/coreldraw/odm/2003">
 <defs>
  <style type="text/css">
   <![CDATA[
    .fil4 {fill:#373435;fill-rule:nonzero}
    .fil1 {fill:url(#id0)}
    .fil3 {fill:url(#id1);fill-rule:nonzero}
    .fil2 {fill:url(#id2);fill-rule:nonzero}
    .fil0 {fill:url(#id3);fill-rule:nonzero}
   ]]>
  </style>
  <linearGradient id="id0" gradientUnits="userSpaceOnUse" x1="2208.59" y1="1659.26" x2="2622.21" y2="452.61">
   <stop offset="0" style="stop-opacity:1; stop-color:#0790DE"/>
   <stop offset="1" style="stop-opacity:1; stop-color:#6BB3FF"/>
  </linearGradient>
  <linearGradient id="id1" gradientUnits="objectBoundingBox" x1="43.8371%" y1="159.691%" x2="45.4307%" y2="0%">
   <stop offset="0" style="stop-opacity:1; stop-color:#ED3237"/>
   <stop offset="1" style="stop-opacity:1; stop-color:#FAA954"/>
  </linearGradient>
  <linearGradient id="id2" gradientUnits="objectBoundingBox" xlink:href="#id0" x1="50.6205%" y1="89.8201%" x2="53.822%" y2="0%">
  </linearGradient>
  <linearGradient id="id3" gradientUnits="userSpaceOnUse" x1="2030.56" y1="3070.38" x2="2418.72" y2="-68.15">
   <stop offset="0" style="stop-opacity:1; stop-color:#ED3237"/>
   <stop offset="1" style="stop-opacity:1; stop-color:#FAA954"/>
  </linearGradient>
 </defs>
 <g id="Layer_x0020_1">
  <metadata id="CorelCorpID_0Corel-Layer"/>
  <g id="_1715902053936">
   <g>
    <path class="fil0" d="M2698.48 270.54l-74.2 0c-26.22,-153.38 -160.14,-270.54 -320.87,-270.54 -160.73,0 -294.65,117.15 -320.88,270.54l-63.46 0c-187,0 -338.99,151.99 -338.99,338.89l-54.81 988.34c0,187 151.99,339 338.89,339l889.02 0c187,0 338.99,-151.99 338.99,-338.9l-54.8 -988.34c0,-187.01 -151.99,-339 -338.89,-339zm-207.64 0l-374.85 0c23.83,-80.99 98.86,-140.33 187.43,-140.33 88.58,0 163.6,59.34 187.42,140.33zm472.91 1327.35c0,104.76 -85.16,210.47 -189.91,210.47l-930.14 0.01c-104.86,0 -190.01,-105.71 -190.01,-210.47l54.81 -988.34c0,-104.75 85.16,-210.47 189.91,-210.47l820.51 -0.01c104.75,0 189.91,105.71 189.91,210.46l54.91 988.34z"/>
    <path class="fil1" d="M1879.82 771.97l19.05 157.69 55.72 122.84c1.44,3.15 1.28,6.81 -0.42,9.81 -1.71,3.02 -4.73,5.05 -8.16,5.46l-89.5 10.82c-3.54,0.43 -7.06,-0.91 -9.43,-3.57 -2.37,-2.67 -3.28,-6.33 -2.43,-9.8l32.61 -133.26 -20.53 -169.84c-5.53,-2.51 -17.71,-4.71 -8.57,-10.83 1.32,-0.88 3,-1.83 4.93,-3.02 525.43,-325.13 342.22,-297.37 918.33,-111.73 17,5.48 -98.69,169.99 -125.61,129.23 -113.58,-171.89 -563.92,-146.77 -622.54,69.5 -9.72,35.85 -107.46,-42.71 -143.46,-63.3zm484.95 940.83c-84.86,0 -160.21,-18.29 -226.05,-54.87 -65.84,-36.58 -114.37,-89 -145.57,-157.28l152.16 -76.08c17.55,39.01 45.11,68.77 82.66,89.25 37.55,20.49 83.15,30.72 136.8,30.72 35.11,0 66.32,-4.87 93.64,-14.63 27.31,-9.75 49.01,-24.38 65.11,-43.89 16.09,-19.5 24.14,-42.92 24.14,-70.22 0,-32.19 -8.78,-56.57 -26.34,-73.15 -17.56,-16.58 -41.21,-29.02 -70.96,-37.31 -29.75,-8.29 -63.16,-15.36 -100.22,-21.21 -37.07,-6.83 -75.34,-15.85 -114.85,-27.07 -39.51,-11.21 -76.33,-27.56 -110.47,-49.01 -34.14,-21.46 -61.7,-49.51 -82.66,-84.13 -20.97,-34.63 -31.46,-78.76 -31.46,-132.41 0,-56.57 15.36,-106.81 46.09,-150.7 30.72,-43.89 72.18,-78.76 124.36,-104.62 52.18,-25.84 110.47,-38.77 174.84,-38.77 79.01,0 150.21,17.81 213.61,53.41 63.4,35.59 110.22,87.54 140.46,155.81l-150.7 76.08c-17.56,-36.09 -44.13,-64.86 -79.74,-86.32 -35.6,-21.46 -79.25,-32.19 -130.95,-32.19 -29.26,0 -55.84,5.12 -79.74,15.36 -23.9,10.24 -42.92,24.38 -57.06,42.43 -14.14,18.05 -21.21,38.77 -21.21,62.18 0,31.22 9.51,55.36 28.52,72.42 19.03,17.07 43.89,30.24 74.62,39.51 30.72,9.26 65.1,17.31 103.15,24.14 37.06,6.82 74.86,15.85 113.38,27.07 38.53,11.21 74.38,27.56 107.54,49.01 33.17,21.46 59.99,49.51 80.47,84.13 20.49,34.63 30.73,79.25 30.73,133.88 0,57.54 -16.34,108.75 -49.01,153.62 -32.67,44.87 -76.32,80.22 -130.94,106.07 -54.62,25.85 -116.07,38.78 -184.35,38.78z"/>
   </g>
   <g>
    <path class="fil2" d="M300.84 3016.57c-69.21,0 -130.56,-14.55 -184.04,-43.65 -53.48,-29.1 -92.42,-71.58 -116.8,-127.42l122.7 -61.35c14.16,31.46 36.38,55.25 66.66,71.38 30.28,16.12 67.45,24.19 111.49,24.19 27.53,0 52.11,-3.93 73.74,-11.8 21.63,-7.86 38.93,-19.47 51.91,-34.8 12.98,-15.34 19.47,-34.41 19.47,-57.22 0,-25.17 -7.08,-44.24 -21.24,-57.22 -14.16,-12.98 -33.23,-22.81 -57.22,-29.5 -23.99,-6.68 -50.54,-12.78 -79.64,-18.29 -29.89,-5.5 -60.76,-12.78 -92.61,-21.83 -31.85,-9.05 -61.74,-22.02 -89.66,-38.93 -27.92,-16.91 -50.34,-39.52 -67.25,-67.84 -16.91,-28.31 -25.37,-64.1 -25.37,-107.36 0,-44.83 12.39,-85.34 37.16,-121.52 24.77,-36.18 58.4,-64.69 100.87,-85.53 42.47,-20.84 90.05,-31.27 142.75,-31.27 62.92,0 119.95,14.36 171.07,43.06 51.13,28.71 88.88,70.98 113.26,126.83l-122.7 62.53c-14.15,-29.1 -35.19,-52.31 -63.12,-69.61 -27.92,-17.31 -62.72,-25.96 -104.41,-25.96 -24.38,0 -46.01,3.93 -64.89,11.8 -18.88,7.86 -34.01,19.07 -45.42,33.62 -11.41,14.55 -17.11,31.66 -17.11,51.32 0,24.38 7.47,43.45 22.42,57.22 14.94,13.77 35,24.19 60.17,31.27 25.17,7.08 52.7,13.76 82.59,20.06 29.89,5.5 60.56,12.78 92.02,21.83 31.46,9.05 60.37,22.02 86.71,38.93 26.35,16.91 47.78,39.52 64.3,67.84 16.51,28.32 24.77,64.1 24.77,107.36 0,47.19 -12.98,88.88 -38.93,125.06 -25.96,36.18 -61.15,64.69 -105.59,85.53 -44.44,20.84 -93.79,31.27 -148.07,31.27z"/>
    <path id="_1" class="fil2" d="M839.64 2209.6l147.47 0 0 792.82 -147.47 0 0 -792.82zm385.79 0l0 136.86 -622.93 0 0 -136.86 622.93 0z"/>
    <path id="_2" class="fil2" d="M1603.76 3014.21c-115.62,0 -200.56,-32.05 -254.84,-96.15 -54.27,-64.1 -81.4,-152 -81.4,-263.68l0 -444.78 147.47 0 0 441.24c0,73.14 15.53,128.79 46.6,166.94 31.07,38.15 78.45,57.22 142.17,57.22 63.71,0 111.09,-19.07 142.16,-57.22 31.07,-38.15 46.6,-93.79 46.6,-166.94l0 -441.24 147.47 0 0 444.78c0,111.69 -27.53,199.58 -82.58,263.68 -55.06,64.1 -139.61,96.15 -253.65,96.15z"/>
    <path class="fil3" d="M2174.75 3002.42l-149.83 0 108.54 -691.36c6.29,-37.75 22.02,-66.46 47.19,-86.12 25.16,-19.67 55.84,-29.5 92.02,-29.5 32.25,0 60.76,7.86 85.53,23.6 24.78,15.73 41.88,40.9 51.32,75.51l141.57 521.47c1.57,6.29 3.93,9.44 7.08,9.44 1.57,0 2.75,-0.59 3.54,-1.77 0.79,-1.18 1.58,-3.73 2.36,-7.67l140.39 -519.11c9.44,-34.61 27.14,-60.17 53.09,-76.69 25.96,-16.51 55.06,-24.77 87.3,-24.77 35.4,0 65.28,10.23 89.67,30.67 24.38,20.45 39.32,49.94 44.83,88.49l97.92 687.82 -148.65 0 -81.4 -640.63c-0.79,-5.5 -1.97,-9.83 -3.54,-12.98 -1.58,-3.14 -4.72,-4.72 -9.44,-4.72 -3.15,0 -5.9,1.38 -8.26,4.13 -2.36,2.75 -4.32,6.49 -5.9,11.21l-154.55 545.06c-7.86,27.53 -21.43,47.98 -40.7,61.35 -19.27,13.37 -41.49,20.06 -66.66,20.06 -24.38,0 -47,-6.49 -67.84,-19.47 -20.84,-12.98 -34.41,-32.44 -40.7,-58.4l-154.55 -549.78c-0.79,-5.51 -2.36,-9.24 -4.72,-11.21 -2.36,-1.97 -5.11,-2.95 -8.25,-2.95 -3.93,0 -7.08,1.38 -9.44,4.13 -2.36,2.75 -3.93,7.28 -4.72,13.57l-93.21 640.63z"/>
    <path id="_1_0" class="fil3" d="M3717.54 2825.44l-461.3 0 0 -132.13 461.3 0 0 132.13zm-611.13 176.97l213.54 -687.82c12.59,-40.11 33.63,-70 63.12,-89.66 29.5,-19.67 61.94,-29.5 97.33,-29.5 36.18,0 68.82,9.83 97.92,29.5 29.1,19.66 49.94,49.55 62.53,89.66l213.54 687.82 -149.83 0 -188.77 -644.16c-6.29,-20.45 -17.7,-30.67 -34.22,-30.67 -17.3,0 -29.1,10.22 -35.39,30.67l-189.95 644.16 -149.83 0z"/>
    <path id="_2_1" class="fil3" d="M4617.35 3002.42l-180.51 0 -200.56 -248.93c-18.88,-25.17 -33.23,-49.75 -43.06,-73.74 -9.83,-23.99 -14.75,-47.79 -14.75,-71.38 0,-24.38 4.72,-48.76 14.16,-73.15 9.44,-24.38 23.99,-48.76 43.65,-73.14l205.28 -252.48 168.71 0 -237.14 293.77c-15.73,19.67 -27.72,37.36 -35.98,53.09 -8.26,15.73 -12.39,31.07 -12.39,46.01 0,14.94 4.13,30.09 12.39,45.42 8.26,15.34 20.25,33.23 35.98,53.68l244.22 300.84zm-534.44 0l-147.47 0 0 -792.82 147.47 0 0 792.82zm161.63 -462.48l0 135.68 -212.36 0 0 -135.68 212.36 0z"/>
   </g>
   <path class="fil4" d="M839.66 3390.08c-14.75,0 -27.86,-3.17 -39.35,-9.51 -11.48,-6.34 -19.88,-15.43 -25.2,-27.26l24.43 -12.09c3.26,7.03 8.32,12.43 15.17,16.2 6.86,3.78 15.17,5.66 24.95,5.66 6.52,0 12.26,-0.94 17.23,-2.83 4.97,-1.89 8.96,-4.67 11.96,-8.36 3,-3.68 4.5,-8.18 4.5,-13.5 0,-6 -1.63,-10.55 -4.89,-13.63 -3.26,-3.09 -7.63,-5.4 -13.11,-6.94 -5.49,-1.54 -11.57,-2.91 -18.26,-4.11 -6.51,-1.2 -13.2,-2.79 -20.06,-4.76 -6.86,-1.97 -13.24,-4.8 -19.16,-8.48 -5.91,-3.69 -10.67,-8.53 -14.27,-14.53 -3.6,-6 -5.4,-13.63 -5.4,-22.88 0,-9.78 2.66,-18.48 7.97,-26.1 5.32,-7.63 12.52,-13.67 21.6,-18.13 9.09,-4.46 19.11,-6.68 30.09,-6.68 13.54,0 25.8,3.09 36.77,9.26 10.97,6.17 19.11,15.26 24.43,27.26l-24.18 12.09c-3.25,-6.68 -8.1,-11.96 -14.53,-15.82 -6.43,-3.86 -14.27,-5.79 -23.53,-5.79 -5.49,0 -10.46,0.94 -14.92,2.83 -4.45,1.89 -8.01,4.59 -10.67,8.1 -2.66,3.51 -3.98,7.5 -3.98,11.96 0,5.83 1.71,10.33 5.14,13.5 3.43,3.17 7.97,5.61 13.63,7.33 5.66,1.72 11.92,3.26 18.77,4.63 6.51,1.2 13.16,2.79 19.93,4.76 6.77,1.97 12.99,4.8 18.64,8.48 5.66,3.69 10.25,8.53 13.76,14.53 3.52,6 5.27,13.71 5.27,23.14 0,10.11 -2.78,19.03 -8.36,26.75 -5.57,7.71 -13.07,13.8 -22.5,18.26 -9.43,4.45 -20.06,6.68 -31.89,6.68z"/>
   <path id="_1_2" class="fil4" d="M962.32 3214.7l29.06 0 0 172.56 -29.06 0 0 -172.56zm81.52 0l0 27 -133.73 0 0 -27 133.73 0z"/>
   <path id="_2_3" class="fil4" d="M1130.77 3389.82c-24.69,0 -42.9,-6.94 -54.65,-20.83 -11.74,-13.89 -17.61,-32.92 -17.61,-57.09l0 -97.21 29.06 0 0 96.44c0,16.63 3.56,29.27 10.67,37.93 7.11,8.66 17.96,12.99 32.53,12.99 14.57,0 25.37,-4.33 32.4,-12.99 7.03,-8.66 10.55,-21.3 10.55,-37.93l0 -96.44 29.06 0 0 97.21c0,24.17 -5.87,43.2 -17.61,57.09 -11.74,13.88 -29.87,20.83 -54.39,20.83z"/>
   <path id="_3" class="fil4" d="M1392.81 3300.59c0,13.37 -2.36,25.42 -7.07,36.13 -4.71,10.72 -11.27,19.84 -19.67,27.39 -8.4,7.54 -18.3,13.29 -29.7,17.23 -11.4,3.94 -23.79,5.91 -37.16,5.91l-59.92 0 0 -172.56 60.95 0c18.51,0 34.72,3.56 48.6,10.67 13.88,7.11 24.69,17.1 32.4,29.96 7.72,12.86 11.57,27.95 11.57,45.26zm-29.83 0c0,-11.83 -2.66,-22.16 -7.97,-30.99 -5.32,-8.83 -12.64,-15.69 -21.99,-20.57 -9.34,-4.89 -20.27,-7.33 -32.79,-7.33l-31.89 0 0 119.32 30.86 0c9.09,0 17.48,-1.41 25.2,-4.25 7.71,-2.83 14.49,-6.81 20.32,-11.95 5.83,-5.14 10.33,-11.49 13.5,-19.03 3.17,-7.54 4.76,-15.94 4.76,-25.2z"/>
   <path id="_4" class="fil4" d="M1540.68 3387.25l-95.66 0c-9.6,0 -16.42,-2.32 -20.45,-6.94 -4.03,-4.63 -6.04,-10.89 -6.04,-18.77l0 -121.12c0,-7.88 2.01,-14.14 6.04,-18.77 4.03,-4.63 10.84,-6.94 20.45,-6.94l93.86 0 0 26.49 -91.3 0 0 119.84 93.09 0 0 26.23zm-6.94 -73.03l-93.61 0 -3.6 -26.49 97.21 0 0 26.49z"/>
   <path id="_5" class="fil4" d="M1595.97 3387.25l-27.77 0 0 -150.44c0,-5.31 1.11,-9.86 3.34,-13.63 2.23,-3.78 5.18,-6.64 8.87,-8.61 3.68,-1.97 7.76,-2.96 12.21,-2.96 5.32,0 9.9,1.03 13.76,3.09 3.86,2.06 7.07,5.4 9.64,10.03l72.78 133.47c0.17,0.69 0.34,1.2 0.52,1.55 0.17,0.34 0.43,0.51 0.77,0.51 0.34,0 0.51,-0.04 0.51,-0.13 0,-0.09 0,-0.3 0,-0.64l0 -144.78 27.52 0 0 150.7c0,5.32 -1.11,9.82 -3.34,13.5 -2.23,3.68 -5.14,6.51 -8.75,8.48 -3.6,1.97 -7.45,2.96 -11.57,2.96 -4.98,0 -9.56,-1.07 -13.76,-3.21 -4.2,-2.14 -7.59,-5.53 -10.16,-10.16l-72.52 -133.21c0,-0.69 -0.09,-1.25 -0.26,-1.67 -0.17,-0.43 -0.43,-0.64 -0.77,-0.64 -0.34,0 -0.6,0.13 -0.77,0.39 -0.17,0.26 -0.26,0.64 -0.26,1.16l0 144.27z"/>
   <path id="_6" class="fil4" d="M1787.81 3214.7l29.06 0 0 172.56 -29.06 0 0 -172.56zm81.52 0l0 27 -133.73 0 0 -27 133.73 0z"/>
   <path id="_7" class="fil4" d="M2115.18 3300.59c0,13.37 -2.36,25.42 -7.07,36.13 -4.71,10.72 -11.27,19.84 -19.67,27.39 -8.4,7.54 -18.3,13.29 -29.7,17.23 -11.4,3.94 -23.79,5.91 -37.16,5.91l-59.92 0 0 -172.56 60.95 0c18.51,0 34.72,3.56 48.6,10.67 13.88,7.11 24.69,17.1 32.4,29.96 7.72,12.86 11.57,27.95 11.57,45.26zm-29.83 0c0,-11.83 -2.66,-22.16 -7.97,-30.99 -5.32,-8.83 -12.64,-15.69 -21.99,-20.57 -9.34,-4.89 -20.27,-7.33 -32.79,-7.33l-31.89 0 0 119.32 30.86 0c9.09,0 17.48,-1.41 25.2,-4.25 7.71,-2.83 14.49,-6.81 20.32,-11.95 5.83,-5.14 10.33,-11.49 13.5,-19.03 3.17,-7.54 4.76,-15.94 4.76,-25.2z"/>
   <path id="_8" class="fil4" d="M2263.05 3387.25l-95.66 0c-9.6,0 -16.42,-2.32 -20.45,-6.94 -4.03,-4.63 -6.04,-10.89 -6.04,-18.77l0 -121.12c0,-7.88 2.01,-14.14 6.04,-18.77 4.03,-4.63 10.84,-6.94 20.45,-6.94l93.86 0 0 26.49 -91.3 0 0 119.84 93.09 0 0 26.23zm-6.94 -73.03l-93.61 0 -3.6 -26.49 97.21 0 0 26.49z"/>
   <path id="_9" class="fil4" d="M2407.83 3346.88l-100.55 0 0 -26.23 100.55 0 0 26.23zm-131.92 40.37l46.8 -150.7c2.74,-8.4 7.2,-14.66 13.37,-18.77 6.17,-4.11 12.94,-6.17 20.32,-6.17 7.54,0 14.36,2.06 20.44,6.17 6.09,4.11 10.42,10.37 12.99,18.77l46.8 150.7 -29.57 0 -41.92 -142.21c-1.54,-4.8 -4.45,-7.2 -8.74,-7.2 -4.29,0 -7.2,2.4 -8.75,7.2l-42.17 142.21 -29.57 0z"/>
   <path id="_10" class="fil4" d="M2489.87 3214.7l0 145.55 84.35 0 0 27 -86.92 0c-9.6,0 -16.41,-2.32 -20.44,-6.94 -4.03,-4.63 -6.05,-10.89 -6.05,-18.77l0 -146.84 29.06 0z"/>
   <path id="_11" class="fil4" d="M2644.94 3390.08c-14.75,0 -27.86,-3.17 -39.35,-9.51 -11.48,-6.34 -19.88,-15.43 -25.2,-27.26l24.43 -12.09c3.26,7.03 8.32,12.43 15.17,16.2 6.86,3.78 15.17,5.66 24.95,5.66 6.52,0 12.26,-0.94 17.23,-2.83 4.97,-1.89 8.96,-4.67 11.96,-8.36 3,-3.68 4.5,-8.18 4.5,-13.5 0,-6 -1.63,-10.55 -4.89,-13.63 -3.26,-3.09 -7.63,-5.4 -13.11,-6.94 -5.49,-1.54 -11.57,-2.91 -18.26,-4.11 -6.51,-1.2 -13.2,-2.79 -20.06,-4.76 -6.86,-1.97 -13.24,-4.8 -19.16,-8.48 -5.91,-3.69 -10.67,-8.53 -14.27,-14.53 -3.6,-6 -5.4,-13.63 -5.4,-22.88 0,-9.78 2.66,-18.48 7.97,-26.1 5.32,-7.63 12.52,-13.67 21.6,-18.13 9.09,-4.46 19.11,-6.68 30.09,-6.68 13.54,0 25.8,3.09 36.77,9.26 10.97,6.17 19.11,15.26 24.43,27.26l-24.18 12.09c-3.25,-6.68 -8.1,-11.96 -14.53,-15.82 -6.43,-3.86 -14.27,-5.79 -23.53,-5.79 -5.49,0 -10.46,0.94 -14.92,2.83 -4.45,1.89 -8.01,4.59 -10.67,8.1 -2.66,3.51 -3.98,7.5 -3.98,11.96 0,5.83 1.71,10.33 5.14,13.5 3.43,3.17 7.97,5.61 13.63,7.33 5.66,1.72 11.92,3.26 18.77,4.63 6.51,1.2 13.16,2.79 19.93,4.76 6.77,1.97 12.99,4.8 18.64,8.48 5.66,3.69 10.25,8.53 13.76,14.53 3.52,6 5.27,13.71 5.27,23.14 0,10.11 -2.78,19.03 -8.36,26.75 -5.57,7.71 -13.07,13.8 -22.5,18.26 -9.43,4.45 -20.06,6.68 -31.89,6.68z"/>
   <path id="_12" class="fil4" d="M2750.89 3435.6l-18.52 0 9.26 -63.26 25.97 4.37 -16.71 58.89zm-0.78 -45.78c-3.09,0 -6.04,-0.81 -8.87,-2.44 -2.83,-1.63 -5.06,-3.86 -6.69,-6.68 -1.63,-2.83 -2.44,-5.87 -2.44,-9.13 0,-3.43 0.82,-6.47 2.44,-9.13 1.63,-2.66 3.86,-4.8 6.69,-6.43 2.83,-1.63 5.78,-2.44 8.87,-2.44 3.43,0 6.52,0.82 9.26,2.44 2.75,1.63 4.93,3.77 6.56,6.43 1.63,2.66 2.45,5.7 2.45,9.13 0,3.26 -0.82,6.3 -2.45,9.13 -1.63,2.83 -3.81,5.06 -6.56,6.68 -2.74,1.63 -5.83,2.44 -9.26,2.44z"/>
   <path id="_13" class="fil4" d="M2992.61 3346.88l-100.55 0 0 -26.23 100.55 0 0 26.23zm-131.92 40.37l46.8 -150.7c2.74,-8.4 7.2,-14.66 13.37,-18.77 6.17,-4.11 12.94,-6.17 20.32,-6.17 7.54,0 14.36,2.06 20.44,6.17 6.09,4.11 10.42,10.37 12.99,18.77l46.8 150.7 -29.57 0 -41.92 -142.21c-1.54,-4.8 -4.45,-7.2 -8.74,-7.2 -4.29,0 -7.2,2.4 -8.75,7.2l-42.17 142.21 -29.57 0z"/>
   <path id="_14" class="fil4" d="M3074.65 3214.7l0 145.55 84.35 0 0 27 -86.92 0c-9.6,0 -16.41,-2.32 -20.44,-6.94 -4.03,-4.63 -6.05,-10.89 -6.05,-18.77l0 -146.84 29.06 0z"/>
   <path id="_15" class="fil4" d="M3206.32 3214.7l0 145.55 84.35 0 0 27 -86.92 0c-9.6,0 -16.41,-2.32 -20.44,-6.94 -4.03,-4.63 -6.05,-10.89 -6.05,-18.77l0 -146.84 29.06 0z"/>
   <path id="_16" class="fil4" d="M3535.49 3300.59c0,13.37 -2.36,25.42 -7.07,36.13 -4.71,10.72 -11.27,19.84 -19.67,27.39 -8.4,7.54 -18.3,13.29 -29.7,17.23 -11.4,3.94 -23.79,5.91 -37.16,5.91l-59.92 0 0 -172.56 60.95 0c18.51,0 34.72,3.56 48.6,10.67 13.88,7.11 24.69,17.1 32.4,29.96 7.72,12.86 11.57,27.95 11.57,45.26zm-29.83 0c0,-11.83 -2.66,-22.16 -7.97,-30.99 -5.32,-8.83 -12.64,-15.69 -21.99,-20.57 -9.34,-4.89 -20.27,-7.33 -32.79,-7.33l-31.89 0 0 119.32 30.86 0c9.09,0 17.48,-1.41 25.2,-4.25 7.71,-2.83 14.49,-6.81 20.32,-11.95 5.83,-5.14 10.33,-11.49 13.5,-19.03 3.17,-7.54 4.76,-15.94 4.76,-25.2z"/>
   <path id="_17" class="fil4" d="M3675.64 3346.88l-100.55 0 0 -26.23 100.55 0 0 26.23zm-131.92 40.37l46.8 -150.7c2.74,-8.4 7.2,-14.66 13.37,-18.77 6.17,-4.11 12.94,-6.17 20.32,-6.17 7.54,0 14.36,2.06 20.44,6.17 6.09,4.11 10.42,10.37 12.99,18.77l46.8 150.7 -29.57 0 -41.92 -142.21c-1.54,-4.8 -4.45,-7.2 -8.74,-7.2 -4.29,0 -7.2,2.4 -8.75,7.2l-42.17 142.21 -29.57 0z"/>
   <path id="_18" class="fil4" d="M3780.82 3387.25l-29.06 0 0 -69.95 29.06 0 0 69.95zm-48.61 -76.89l-41.4 -95.66 31.11 0 36.77 87.95c1.2,2.4 2.32,4.29 3.34,5.66 1.03,1.37 2.49,2.06 4.37,2.06 1.71,0 3.13,-0.68 4.24,-2.06 1.11,-1.37 2.19,-3.25 3.22,-5.66l36.77 -87.95 31.11 0 -41.92 95.66c-3.6,8.57 -8.36,15 -14.27,19.29 -5.92,4.29 -12.39,6.43 -19.42,6.43 -7.03,0 -13.46,-2.14 -19.29,-6.43 -5.83,-4.28 -10.71,-10.71 -14.66,-19.29z"/>
  </g>
 </g>
</svg>
