<?xml version="1.0" encoding="UTF-8"?>
<!DOCTYPE svg PUBLIC "-//W3C//DTD SVG 1.1//EN" "http://www.w3.org/Graphics/SVG/1.1/DTD/svg11.dtd">
<!-- Creator: CorelDRAW -->
<svg xmlns="http://www.w3.org/2000/svg" xml:space="preserve" width="1.14121in" height="1.14121in" version="1.1" style="shape-rendering:geometricPrecision; text-rendering:geometricPrecision; image-rendering:optimizeQuality; fill-rule:evenodd; clip-rule:evenodd"
viewBox="0 0 136.64 136.64"
 xmlns:xlink="http://www.w3.org/1999/xlink"
 xmlns:xodm="http://www.corel.com/coreldraw/odm/2003">
 <defs>
  <style type="text/css">
   <![CDATA[
    .fil0 {fill:#FEFEFE}
    .fil2 {fill:url(#id0)}
    .fil1 {fill:url(#id1);fill-rule:nonzero}
   ]]>
  </style>
  <linearGradient id="id0" gradientUnits="userSpaceOnUse" x1="62.59" y1="107.85" x2="86.26" y2="38.81">
   <stop offset="0" style="stop-opacity:1; stop-color:#0790DE"/>
   <stop offset="1" style="stop-opacity:1; stop-color:#6BB3FF"/>
  </linearGradient>
  <linearGradient id="id1" gradientUnits="userSpaceOnUse" x1="52.4" y1="188.59" x2="74.61" y2="9.01">
   <stop offset="0" style="stop-opacity:1; stop-color:#ED3237"/>
   <stop offset="1" style="stop-opacity:1; stop-color:#FAA954"/>
  </linearGradient>
 </defs>
 <g id="Layer_x0020_1">
  <metadata id="CorelCorpID_0Corel-Layer"/>
  <g id="_1715902957280">
   <rect class="fil0" width="136.64" height="136.64" rx="27.42" ry="27.42"/>
   <g>
    <path class="fil1" d="M90.62 28.39l-4.25 0c-1.5,-8.78 -9.16,-15.48 -18.36,-15.48 -9.2,0 -16.86,6.7 -18.36,15.48l-3.63 0c-10.7,0 -19.4,8.7 -19.4,19.39l-3.14 56.55c0,10.7 8.7,19.4 19.39,19.4l50.87 0c10.7,0 19.4,-8.7 19.4,-19.39l-3.14 -56.55c0,-10.7 -8.7,-19.4 -19.39,-19.4zm-11.88 0l-21.45 0c1.36,-4.63 5.66,-8.03 10.72,-8.03 5.07,0 9.36,3.4 10.72,8.03zm27.06 75.95c0,5.99 -4.87,12.04 -10.87,12.04l-53.22 0c-6,0 -10.87,-6.05 -10.87,-12.04l3.14 -56.55c0,-5.99 4.87,-12.04 10.87,-12.04l46.95 -0c5.99,0 10.87,6.05 10.87,12.04l3.14 56.55z"/>
    <path class="fil2" d="M43.78 57.08l1.09 9.02 3.19 7.03c0.08,0.18 0.07,0.39 -0.02,0.56 -0.1,0.17 -0.27,0.29 -0.47,0.31l-5.12 0.62c-0.2,0.02 -0.4,-0.05 -0.54,-0.2 -0.14,-0.15 -0.19,-0.36 -0.14,-0.56l1.87 -7.62 -1.17 -9.72c-0.32,-0.14 -1.01,-0.27 -0.49,-0.62 0.08,-0.05 0.17,-0.11 0.28,-0.17 30.06,-18.6 19.58,-17.01 52.54,-6.39 0.97,0.31 -5.65,9.73 -7.19,7.39 -6.5,-9.84 -32.27,-8.4 -35.62,3.98 -0.56,2.05 -6.15,-2.44 -8.21,-3.62zm27.75 53.83c-4.86,0 -9.17,-1.05 -12.93,-3.14 -3.77,-2.09 -6.54,-5.09 -8.33,-9l8.71 -4.35c1,2.23 2.58,3.93 4.73,5.11 2.15,1.17 4.76,1.76 7.83,1.76 2.01,0 3.8,-0.28 5.36,-0.84 1.56,-0.56 2.8,-1.39 3.73,-2.51 0.92,-1.12 1.38,-2.46 1.38,-4.02 0,-1.84 -0.5,-3.24 -1.51,-4.19 -1,-0.95 -2.36,-1.66 -4.06,-2.13 -1.7,-0.47 -3.61,-0.88 -5.73,-1.21 -2.12,-0.39 -4.31,-0.91 -6.57,-1.55 -2.26,-0.64 -4.37,-1.58 -6.32,-2.8 -1.95,-1.23 -3.53,-2.83 -4.73,-4.81 -1.2,-1.98 -1.8,-4.51 -1.8,-7.58 0,-3.24 0.88,-6.11 2.64,-8.62 1.76,-2.51 4.13,-4.51 7.12,-5.99 2.99,-1.48 6.32,-2.22 10,-2.22 4.52,0 8.59,1.02 12.22,3.06 3.63,2.04 6.31,5.01 8.04,8.92l-8.62 4.35c-1,-2.06 -2.53,-3.71 -4.56,-4.94 -2.04,-1.23 -4.53,-1.84 -7.49,-1.84 -1.67,0 -3.19,0.29 -4.56,0.88 -1.37,0.59 -2.46,1.4 -3.26,2.43 -0.81,1.03 -1.21,2.22 -1.21,3.56 0,1.79 0.54,3.17 1.63,4.14 1.09,0.98 2.51,1.73 4.27,2.26 1.76,0.53 3.72,0.99 5.9,1.38 2.12,0.39 4.28,0.91 6.49,1.55 2.2,0.64 4.26,1.58 6.15,2.8 1.9,1.23 3.43,2.83 4.6,4.81 1.17,1.98 1.76,4.53 1.76,7.66 0,3.29 -0.93,6.22 -2.8,8.79 -1.87,2.57 -4.37,4.59 -7.49,6.07 -3.13,1.48 -6.64,2.22 -10.55,2.22z"/>
   </g>
  </g>
 </g>
</svg>
