<?xml version="1.0" encoding="UTF-8"?>
<!DOCTYPE svg PUBLIC "-//W3C//DTD SVG 1.1//EN" "http://www.w3.org/Graphics/SVG/1.1/DTD/svg11.dtd">
<!-- Creator: CorelDRAW -->
<svg xmlns="http://www.w3.org/2000/svg" xml:space="preserve" width="1.46819in" height="1.81475in" version="1.1" style="shape-rendering:geometricPrecision; text-rendering:geometricPrecision; image-rendering:optimizeQuality; fill-rule:evenodd; clip-rule:evenodd"
viewBox="0 0 1230.24 1520.64"
 xmlns:xlink="http://www.w3.org/1999/xlink"
 xmlns:xodm="http://www.corel.com/coreldraw/odm/2003">
 <defs>
  <style type="text/css">
   <![CDATA[
    .fil1 {fill:url(#id0)}
    .fil0 {fill:url(#id1);fill-rule:nonzero}
   ]]>
  </style>
  <linearGradient id="id0" gradientUnits="userSpaceOnUse" x1="536.51" y1="1302.76" x2="861.26" y2="355.37">
   <stop offset="0" style="stop-opacity:1; stop-color:#0790DE"/>
   <stop offset="1" style="stop-opacity:1; stop-color:#6BB3FF"/>
  </linearGradient>
  <linearGradient id="id1" gradientUnits="userSpaceOnUse" x1="396.72" y1="2410.68" x2="701.48" y2="-53.51">
   <stop offset="0" style="stop-opacity:1; stop-color:#ED3237"/>
   <stop offset="1" style="stop-opacity:1; stop-color:#FAA954"/>
  </linearGradient>
 </defs>
 <g id="Layer_x0020_1">
  <metadata id="CorelCorpID_0Corel-Layer"/>
  <g id="_1715773079296">
   <path class="fil0" d="M921.13 212.41l-58.26 0c-20.59,-120.43 -125.73,-212.41 -251.93,-212.41 -126.19,0 -231.34,91.98 -251.93,212.41l-49.82 0c-146.82,0 -266.16,119.33 -266.16,266.08l-43.03 775.99c0,146.83 119.33,266.16 266.08,266.16l698.01 0c146.82,0 266.16,-119.33 266.16,-266.08l-43.03 -775.99c0,-146.83 -119.33,-266.16 -266.08,-266.16zm-163.02 0l-294.31 0c18.71,-63.59 77.61,-110.17 147.16,-110.17 69.54,0 128.45,46.59 147.15,110.17zm371.3 1042.16c0,82.25 -66.86,165.25 -149.1,165.25l-730.29 0.01c-82.33,0 -149.19,-83 -149.19,-165.25l43.03 -775.99c0,-82.25 66.86,-165.25 149.11,-165.25l644.22 -0.01c82.24,0 149.1,83 149.1,165.25l43.11 775.99z"/>
   <path class="fil1" d="M278.37 606.11l14.96 123.81 43.75 96.45c1.13,2.47 1,5.34 -0.33,7.7 -1.34,2.37 -3.71,3.96 -6.41,4.29l-70.27 8.49c-2.77,0.34 -5.55,-0.72 -7.4,-2.8 -1.85,-2.09 -2.57,-4.97 -1.9,-7.7l25.6 -104.63 -16.12 -133.35c-4.34,-1.97 -13.9,-3.69 -6.73,-8.5 1.04,-0.69 2.36,-1.44 3.87,-2.37 412.54,-255.27 268.69,-233.48 721.02,-87.72 13.35,4.3 -77.49,133.46 -98.62,101.47 -89.18,-134.96 -442.75,-115.24 -488.78,54.56 -7.64,28.15 -84.37,-33.53 -112.64,-49.7zm380.75 738.68c-66.63,0 -125.79,-14.36 -177.48,-43.08 -51.69,-28.72 -89.8,-69.88 -114.3,-123.49l119.47 -59.73c13.79,30.63 35.42,53.99 64.9,70.07 29.49,16.09 65.29,24.13 107.41,24.13 27.57,0 52.07,-3.83 73.51,-11.49 21.44,-7.66 38.48,-19.14 51.12,-34.46 12.63,-15.31 18.96,-33.7 18.96,-55.14 0,-25.27 -6.89,-44.41 -20.68,-57.43 -13.79,-13.02 -32.36,-22.79 -55.71,-29.29 -23.36,-6.51 -49.59,-12.06 -78.69,-16.66 -29.1,-5.36 -59.15,-12.44 -90.17,-21.25 -31.02,-8.8 -59.93,-21.64 -86.73,-38.48 -26.8,-16.85 -48.44,-38.87 -64.9,-66.05 -16.47,-27.19 -24.7,-61.84 -24.7,-103.96 0,-44.42 12.06,-83.86 36.19,-118.32 24.13,-34.46 56.67,-61.84 97.64,-82.14 40.98,-20.29 86.73,-30.44 137.28,-30.44 62.03,0 117.93,13.98 167.71,41.93 49.78,27.95 86.54,68.73 110.28,122.34l-118.32 59.74c-13.79,-28.34 -34.65,-50.93 -62.61,-67.78 -27.95,-16.85 -62.22,-25.27 -102.81,-25.27 -22.97,0 -43.84,4.02 -62.6,12.06 -18.76,8.04 -33.7,19.14 -44.8,33.31 -11.1,14.17 -16.66,30.44 -16.66,48.82 0,24.51 7.47,43.46 22.4,56.86 14.94,13.4 34.46,23.74 58.59,31.02 24.12,7.27 51.12,13.59 80.99,18.95 29.1,5.36 58.77,12.45 89.03,21.25 30.25,8.8 58.39,21.64 84.43,38.48 26.04,16.85 47.1,38.87 63.17,66.05 16.09,27.19 24.13,62.22 24.13,105.11 0,45.18 -12.83,85.38 -38.48,120.61 -25.66,35.23 -59.93,62.99 -102.81,83.29 -42.89,20.3 -91.13,30.44 -144.74,30.44z"/>
  </g>
 </g>
</svg>
