<?xml version="1.0" encoding="UTF-8"?>
<!DOCTYPE svg PUBLIC "-//W3C//DTD SVG 1.1//EN" "http://www.w3.org/Graphics/SVG/1.1/DTD/svg11.dtd">
<!-- Creator: CorelDRAW -->
<svg xmlns="http://www.w3.org/2000/svg" xml:space="preserve" width="5.31639in" height="1.41599in" version="1.1" style="shape-rendering:geometricPrecision; text-rendering:geometricPrecision; image-rendering:optimizeQuality; fill-rule:evenodd; clip-rule:evenodd"
viewBox="0 0 2684.17 714.91"
 xmlns:xlink="http://www.w3.org/1999/xlink"
 xmlns:xodm="http://www.corel.com/coreldraw/odm/2003">
 <defs>
  <style type="text/css">
   <![CDATA[
    .fil4 {fill:#373435;fill-rule:nonzero}
    .fil1 {fill:url(#id0)}
    .fil0 {fill:url(#id1);fill-rule:nonzero}
    .fil2 {fill:url(#id2);fill-rule:nonzero}
    .fil3 {fill:url(#id3);fill-rule:nonzero}
   ]]>
  </style>
  <linearGradient id="id0" gradientUnits="userSpaceOnUse" x1="238.86" y1="612.48" x2="391.54" y2="167.08">
   <stop offset="0" style="stop-opacity:1; stop-color:#0790DE"/>
   <stop offset="1" style="stop-opacity:1; stop-color:#6BB3FF"/>
  </linearGradient>
  <linearGradient id="id1" gradientUnits="userSpaceOnUse" x1="186.52" y1="1133.36" x2="329.8" y2="-25.16">
   <stop offset="0" style="stop-opacity:1; stop-color:#ED3237"/>
   <stop offset="1" style="stop-opacity:1; stop-color:#FAA954"/>
  </linearGradient>
  <linearGradient id="id2" gradientUnits="objectBoundingBox" xlink:href="#id0" x1="50.6205%" y1="89.8197%" x2="53.822%" y2="0%">
  </linearGradient>
  <linearGradient id="id3" gradientUnits="objectBoundingBox" x1="43.837%" y1="159.691%" x2="45.4306%" y2="0%">
   <stop offset="0" style="stop-opacity:1; stop-color:#ED3237"/>
   <stop offset="1" style="stop-opacity:1; stop-color:#FAA954"/>
  </linearGradient>
 </defs>
 <g id="Layer_x0020_1">
  <metadata id="CorelCorpID_0Corel-Layer"/>
  <g id="_1715777586800">
   <path class="fil0" d="M433.07 99.86l-27.39 0c-9.68,-56.62 -59.11,-99.86 -118.44,-99.86 -59.33,0 -108.76,43.25 -118.44,99.86l-23.43 0c-69.03,0 -125.13,56.1 -125.13,125.09l-20.23 364.82c0,69.03 56.1,125.13 125.09,125.13l328.16 0c69.03,0 125.13,-56.1 125.13,-125.09l-20.23 -364.82c0,-69.03 -56.1,-125.13 -125.09,-125.13zm-76.65 0l-138.37 0c8.8,-29.9 36.49,-51.8 69.19,-51.8 32.7,0 60.39,21.9 69.18,51.8zm174.56 489.96c0,38.67 -31.43,77.69 -70.1,77.69l-343.34 0c-38.7,0 -70.14,-39.02 -70.14,-77.69l20.23 -364.82c0,-38.67 31.43,-77.69 70.1,-77.69l302.87 -0c38.67,0 70.1,39.02 70.1,77.69l20.27 364.82z"/>
   <path class="fil1" d="M117.5 284.96l7.03 58.21 20.57 45.34c0.53,1.16 0.47,2.51 -0.15,3.62 -0.63,1.12 -1.75,1.86 -3.02,2.02l-33.04 3.99c-1.3,0.16 -2.61,-0.34 -3.48,-1.32 -0.87,-0.99 -1.21,-2.34 -0.89,-3.62l12.04 -49.19 -7.58 -62.69c-2.04,-0.93 -6.54,-1.74 -3.16,-4 0.49,-0.33 1.11,-0.68 1.82,-1.12 193.95,-120.01 126.32,-109.77 338.98,-41.24 6.28,2.02 -36.43,62.75 -46.36,47.7 -41.93,-63.45 -208.16,-54.18 -229.8,25.65 -3.59,13.23 -39.67,-15.76 -52.96,-23.36zm179.01 347.28c-31.32,0 -59.14,-6.75 -83.44,-20.25 -24.3,-13.5 -42.22,-32.86 -53.74,-58.06l56.17 -28.08c6.48,14.4 16.65,25.38 30.51,32.94 13.86,7.56 30.69,11.34 50.5,11.34 12.96,0 24.48,-1.8 34.56,-5.4 10.08,-3.6 18.09,-9 24.03,-16.2 5.94,-7.2 8.91,-15.84 8.91,-25.92 0,-11.88 -3.24,-20.88 -9.72,-27 -6.48,-6.12 -15.21,-10.71 -26.19,-13.77 -10.98,-3.06 -23.31,-5.67 -37,-7.83 -13.68,-2.52 -27.81,-5.85 -42.39,-9.99 -14.58,-4.14 -28.17,-10.17 -40.78,-18.09 -12.6,-7.92 -22.77,-18.28 -30.51,-31.05 -7.74,-12.78 -11.61,-29.07 -11.61,-48.87 0,-20.89 5.67,-39.43 17.01,-55.63 11.34,-16.2 26.65,-29.07 45.91,-38.62 19.26,-9.54 40.77,-14.31 64.54,-14.31 29.16,0 55.44,6.57 78.85,19.71 23.4,13.14 40.69,32.31 51.85,57.52l-55.63 28.08c-6.48,-13.32 -16.29,-23.94 -29.43,-31.86 -13.14,-7.92 -29.26,-11.88 -48.34,-11.88 -10.8,0 -20.61,1.89 -29.43,5.67 -8.82,3.78 -15.84,9 -21.06,15.66 -5.22,6.66 -7.83,14.31 -7.83,22.95 0,11.52 3.51,20.43 10.53,26.73 7.02,6.3 16.2,11.16 27.55,14.58 11.34,3.42 24.03,6.39 38.08,8.91 13.68,2.52 27.63,5.85 41.85,9.99 14.22,4.14 27.45,10.17 39.7,18.09 12.24,7.92 22.14,18.27 29.7,31.05 7.56,12.78 11.34,29.26 11.34,49.42 0,21.24 -6.03,40.14 -18.09,56.71 -12.06,16.56 -28.17,29.61 -48.34,39.15 -20.16,9.54 -42.84,14.31 -68.05,14.31z"/>
   <g>
    <path class="fil2" d="M843.42 508.76c-29.52,0 -55.68,-6.2 -78.49,-18.62 -22.81,-12.41 -39.41,-30.52 -49.81,-54.34l52.33 -26.16c6.04,13.42 15.51,23.56 28.43,30.44 12.91,6.88 28.76,10.31 47.54,10.31 11.74,0 22.22,-1.68 31.45,-5.03 9.22,-3.36 16.6,-8.3 22.14,-14.84 5.53,-6.54 8.3,-14.68 8.3,-24.4 0,-10.73 -3.02,-18.87 -9.06,-24.4 -6.04,-5.53 -14.17,-9.73 -24.4,-12.58 -10.23,-2.85 -21.55,-5.45 -33.96,-7.8 -12.75,-2.35 -25.91,-5.45 -39.5,-9.31 -13.58,-3.86 -26.33,-9.39 -38.24,-16.6 -11.91,-7.21 -21.47,-16.85 -28.68,-28.93 -7.21,-12.08 -10.82,-27.34 -10.82,-45.78 0,-19.12 5.28,-36.39 15.85,-51.82 10.56,-15.43 24.9,-27.59 43.02,-36.48 18.11,-8.89 38.41,-13.33 60.88,-13.33 26.83,0 51.15,6.12 72.95,18.36 21.8,12.24 37.9,30.27 48.3,54.09l-52.33 26.67c-6.04,-12.41 -15.01,-22.3 -26.92,-29.68 -11.91,-7.38 -26.75,-11.07 -44.53,-11.07 -10.4,0 -19.62,1.68 -27.67,5.03 -8.05,3.35 -14.51,8.13 -19.37,14.34 -4.86,6.2 -7.3,13.5 -7.3,21.89 0,10.4 3.19,18.53 9.56,24.4 6.37,5.87 14.93,10.31 25.66,13.33 10.73,3.02 22.47,5.87 35.22,8.55 12.75,2.35 25.83,5.45 39.24,9.31 13.42,3.86 25.74,9.39 36.98,16.6 11.24,7.21 20.38,16.86 27.42,28.93 7.04,12.08 10.56,27.34 10.56,45.79 0,20.12 -5.53,37.9 -16.6,53.33 -11.07,15.43 -26.08,27.59 -45.03,36.48 -18.95,8.89 -40,13.33 -63.14,13.33z"/>
    <path id="_1" class="fil2" d="M1073.19 164.62l62.89 0 0 338.1 -62.89 0 0 -338.1zm164.52 0l0 58.36 -265.65 0 0 -58.36 265.65 0z"/>
    <path id="_2" class="fil2" d="M1399.06 507.76c-49.31,0 -85.53,-13.67 -108.68,-41.01 -23.14,-27.34 -34.72,-64.82 -34.72,-112.45l0 -189.68 62.89 0 0 188.17c0,31.19 6.63,54.92 19.87,71.19 13.25,16.27 33.46,24.4 60.63,24.4 27.17,0 47.38,-8.13 60.63,-24.4 13.25,-16.27 19.87,-40 19.87,-71.19l0 -188.17 62.89 0 0 189.68c0,47.63 -11.74,85.11 -35.22,112.45 -23.48,27.34 -59.53,41.01 -108.17,41.01z"/>
    <path class="fil3" d="M1642.52 502.72l-63.9 0 46.29 -294.83c2.68,-16.1 9.39,-28.34 20.13,-36.73 10.73,-8.38 23.82,-12.58 39.24,-12.58 13.75,0 25.91,3.36 36.48,10.06 10.56,6.71 17.86,17.44 21.89,32.2l60.38 222.38c0.67,2.68 1.68,4.03 3.02,4.03 0.67,0 1.17,-0.25 1.51,-0.76 0.34,-0.5 0.67,-1.59 1.01,-3.27l59.87 -221.38c4.03,-14.76 11.57,-25.66 22.64,-32.7 11.07,-7.04 23.48,-10.57 37.23,-10.57 15.09,0 27.84,4.36 38.24,13.08 10.4,8.72 16.77,21.3 19.12,37.74l41.76 293.32 -63.39 0 -34.72 -273.2c-0.34,-2.35 -0.84,-4.19 -1.51,-5.54 -0.67,-1.34 -2.01,-2.01 -4.03,-2.01 -1.34,0 -2.52,0.59 -3.52,1.76 -1.01,1.17 -1.84,2.77 -2.52,4.78l-65.91 232.44c-3.35,11.74 -9.14,20.46 -17.36,26.16 -8.22,5.7 -17.69,8.55 -28.43,8.55 -10.4,0 -20.04,-2.77 -28.93,-8.3 -8.89,-5.53 -14.68,-13.84 -17.36,-24.9l-65.91 -234.46c-0.34,-2.35 -1.01,-3.94 -2.01,-4.78 -1.01,-0.84 -2.18,-1.26 -3.52,-1.26 -1.68,0 -3.02,0.59 -4.03,1.76 -1.01,1.17 -1.68,3.1 -2.01,5.79l-39.75 273.2z"/>
    <path id="_1_0" class="fil3" d="M2300.45 427.26l-196.72 0 0 -56.35 196.72 0 0 56.35zm-260.62 75.47l91.07 -293.32c5.37,-17.11 14.34,-29.85 26.92,-38.24 12.58,-8.38 26.41,-12.58 41.51,-12.58 15.43,0 29.35,4.19 41.76,12.58 12.41,8.39 21.3,21.13 26.67,38.24l91.06 293.32 -63.9 0 -80.5 -274.71c-2.68,-8.72 -7.55,-13.08 -14.59,-13.08 -7.38,0 -12.41,4.36 -15.09,13.08l-81 274.71 -63.9 0z"/>
    <path id="_2_1" class="fil3" d="M2684.17 502.72l-76.98 0 -85.53 -106.16c-8.05,-10.73 -14.17,-21.22 -18.36,-31.45 -4.19,-10.23 -6.29,-20.38 -6.29,-30.44 0,-10.4 2.01,-20.8 6.04,-31.2 4.03,-10.4 10.23,-20.8 18.62,-31.19l87.54 -107.67 71.95 0 -101.13 125.28c-6.71,8.39 -11.83,15.93 -15.35,22.64 -3.52,6.71 -5.28,13.25 -5.28,19.62 0,6.37 1.76,12.83 5.28,19.37 3.52,6.54 8.64,14.17 15.35,22.89l104.15 128.3zm-227.92 0l-62.89 0 0 -338.1 62.89 0 0 338.1zm68.93 -197.23l0 57.86 -90.56 0 0 -57.86 90.56 0z"/>
   </g>
   <path class="fil4" d="M747.06 669.21c-7.3,0 -13.79,-1.57 -19.47,-4.71 -5.68,-3.14 -9.84,-7.64 -12.47,-13.49l12.09 -5.98c1.61,3.48 4.11,6.15 7.51,8.02 3.39,1.87 7.51,2.8 12.34,2.8 3.22,0 6.06,-0.47 8.53,-1.4 2.46,-0.93 4.43,-2.31 5.92,-4.14 1.48,-1.82 2.23,-4.05 2.23,-6.68 0,-2.97 -0.81,-5.22 -2.42,-6.74 -1.61,-1.53 -3.77,-2.67 -6.49,-3.43 -2.72,-0.76 -5.73,-1.44 -9.03,-2.04 -3.22,-0.59 -6.53,-1.38 -9.93,-2.36 -3.39,-0.98 -6.55,-2.38 -9.48,-4.2 -2.93,-1.82 -5.28,-4.22 -7.06,-7.19 -1.78,-2.97 -2.67,-6.74 -2.67,-11.33 0,-4.84 1.32,-9.14 3.95,-12.92 2.63,-3.77 6.19,-6.77 10.69,-8.97 4.5,-2.21 9.46,-3.31 14.89,-3.31 6.7,0 12.77,1.53 18.2,4.58 5.43,3.05 9.46,7.55 12.09,13.49l-11.96 5.98c-1.61,-3.31 -4.01,-5.92 -7.19,-7.83 -3.18,-1.91 -7.06,-2.86 -11.64,-2.86 -2.72,0 -5.18,0.47 -7.38,1.4 -2.2,0.93 -3.97,2.27 -5.28,4.01 -1.32,1.74 -1.97,3.71 -1.97,5.92 0,2.88 0.85,5.11 2.55,6.68 1.7,1.57 3.94,2.78 6.74,3.63 2.8,0.85 5.9,1.61 9.29,2.29 3.22,0.59 6.51,1.38 9.86,2.35 3.35,0.98 6.43,2.38 9.23,4.2 2.8,1.82 5.07,4.22 6.81,7.19 1.74,2.97 2.61,6.79 2.61,11.45 0,5.01 -1.38,9.42 -4.13,13.23 -2.76,3.82 -6.47,6.83 -11.14,9.04 -4.67,2.2 -9.92,3.31 -15.78,3.31z"/>
   <path id="_1_2" class="fil4" d="M807.76 582.42l14.38 0 0 85.39 -14.38 0 0 -85.39zm40.34 0l0 13.36 -66.17 0 0 -13.36 66.17 0z"/>
   <path id="_2_3" class="fil4" d="M891.11 669.08c-12.22,0 -21.23,-3.43 -27.04,-10.31 -5.81,-6.87 -8.72,-16.29 -8.72,-28.25l0 -48.1 14.38 0 0 47.72c0,8.23 1.76,14.49 5.28,18.77 3.52,4.28 8.89,6.43 16.1,6.43 7.21,0 12.55,-2.14 16.03,-6.43 3.48,-4.28 5.22,-10.54 5.22,-18.77l0 -47.72 14.38 0 0 48.1c0,11.96 -2.91,21.38 -8.72,28.25 -5.81,6.87 -14.78,10.31 -26.91,10.31z"/>
   <path id="_3" class="fil4" d="M1020.78 624.93c0,6.62 -1.17,12.58 -3.5,17.88 -2.33,5.3 -5.58,9.82 -9.74,13.55 -4.16,3.73 -9.06,6.58 -14.7,8.53 -5.64,1.95 -11.77,2.93 -18.39,2.93l-29.65 0 0 -85.39 30.16 0c9.16,0 17.18,1.76 24.05,5.28 6.87,3.52 12.22,8.46 16.03,14.82 3.82,6.36 5.73,13.83 5.73,22.4zm-14.76 0c0,-5.85 -1.32,-10.97 -3.95,-15.34 -2.63,-4.37 -6.26,-7.76 -10.88,-10.18 -4.62,-2.42 -10.03,-3.63 -16.23,-3.63l-15.78 0 0 59.05 15.27 0c4.5,0 8.65,-0.7 12.47,-2.1 3.82,-1.4 7.17,-3.37 10.05,-5.92 2.88,-2.55 5.11,-5.68 6.68,-9.42 1.57,-3.73 2.35,-7.89 2.35,-12.47z"/>
   <path id="_4" class="fil4" d="M1093.95 667.81l-47.34 0c-4.75,0 -8.12,-1.14 -10.12,-3.44 -1.99,-2.29 -2.99,-5.39 -2.99,-9.29l0 -59.94c0,-3.9 1,-7 2.99,-9.29 1.99,-2.29 5.37,-3.44 10.12,-3.44l46.45 0 0 13.11 -45.18 0 0 59.3 46.07 0 0 12.98zm-3.44 -36.14l-46.32 0 -1.78 -13.11 48.1 0 0 13.11z"/>
   <path id="_5" class="fil4" d="M1121.31 667.81l-13.74 0 0 -74.44c0,-2.63 0.55,-4.88 1.65,-6.74 1.1,-1.87 2.57,-3.29 4.39,-4.26 1.82,-0.98 3.84,-1.46 6.04,-1.46 2.63,0 4.9,0.51 6.81,1.53 1.91,1.02 3.5,2.67 4.77,4.96l36.01 66.04c0.08,0.34 0.17,0.59 0.25,0.76 0.08,0.17 0.21,0.25 0.38,0.25 0.17,0 0.25,-0.02 0.25,-0.06 0,-0.04 0,-0.15 0,-0.32l0 -71.64 13.62 0 0 74.57c0,2.63 -0.55,4.86 -1.65,6.68 -1.1,1.82 -2.55,3.22 -4.33,4.2 -1.78,0.98 -3.69,1.46 -5.73,1.46 -2.46,0 -4.73,-0.53 -6.81,-1.59 -2.08,-1.06 -3.75,-2.74 -5.03,-5.03l-35.88 -65.92c0,-0.34 -0.04,-0.61 -0.13,-0.83 -0.09,-0.21 -0.21,-0.32 -0.38,-0.32 -0.17,0 -0.3,0.06 -0.38,0.19 -0.09,0.13 -0.13,0.32 -0.13,0.57l0 71.39z"/>
   <path id="_6" class="fil4" d="M1216.24 582.42l14.38 0 0 85.39 -14.38 0 0 -85.39zm40.34 0l0 13.36 -66.17 0 0 -13.36 66.17 0z"/>
   <path id="_7" class="fil4" d="M1378.23 624.93c0,6.62 -1.17,12.58 -3.5,17.88 -2.33,5.3 -5.58,9.82 -9.74,13.55 -4.16,3.73 -9.06,6.58 -14.7,8.53 -5.64,1.95 -11.77,2.93 -18.39,2.93l-29.65 0 0 -85.39 30.16 0c9.16,0 17.18,1.76 24.05,5.28 6.87,3.52 12.22,8.46 16.03,14.82 3.82,6.36 5.73,13.83 5.73,22.4zm-14.76 0c0,-5.85 -1.32,-10.97 -3.95,-15.34 -2.63,-4.37 -6.26,-7.76 -10.88,-10.18 -4.62,-2.42 -10.03,-3.63 -16.23,-3.63l-15.78 0 0 59.05 15.27 0c4.5,0 8.65,-0.7 12.47,-2.1 3.82,-1.4 7.17,-3.37 10.05,-5.92 2.88,-2.55 5.11,-5.68 6.68,-9.42 1.57,-3.73 2.35,-7.89 2.35,-12.47z"/>
   <path id="_8" class="fil4" d="M1451.4 667.81l-47.34 0c-4.75,0 -8.12,-1.14 -10.12,-3.44 -1.99,-2.29 -2.99,-5.39 -2.99,-9.29l0 -59.94c0,-3.9 1,-7 2.99,-9.29 1.99,-2.29 5.37,-3.44 10.12,-3.44l46.45 0 0 13.11 -45.18 0 0 59.3 46.07 0 0 12.98zm-3.44 -36.14l-46.32 0 -1.78 -13.11 48.1 0 0 13.11z"/>
   <path id="_9" class="fil4" d="M1523.04 647.83l-49.76 0 0 -12.98 49.76 0 0 12.98zm-65.28 19.98l23.16 -74.57c1.36,-4.16 3.56,-7.25 6.62,-9.29 3.06,-2.04 6.4,-3.05 10.05,-3.05 3.73,0 7.1,1.02 10.12,3.05 3.01,2.04 5.15,5.13 6.43,9.29l23.16 74.57 -14.64 0 -20.74 -70.37c-0.76,-2.38 -2.2,-3.56 -4.33,-3.56 -2.12,0 -3.56,1.19 -4.33,3.56l-20.87 70.37 -14.63 0z"/>
   <path id="_10" class="fil4" d="M1563.64 582.42l0 72.03 41.74 0 0 13.36 -43.01 0c-4.75,0 -8.12,-1.14 -10.12,-3.44 -1.99,-2.29 -2.99,-5.39 -2.99,-9.29l0 -72.66 14.38 0z"/>
   <path id="_11" class="fil4" d="M1640.37 669.21c-7.3,0 -13.79,-1.57 -19.47,-4.71 -5.68,-3.14 -9.84,-7.64 -12.47,-13.49l12.09 -5.98c1.61,3.48 4.11,6.15 7.51,8.02 3.39,1.87 7.51,2.8 12.34,2.8 3.22,0 6.06,-0.47 8.53,-1.4 2.46,-0.93 4.43,-2.31 5.92,-4.14 1.48,-1.82 2.23,-4.05 2.23,-6.68 0,-2.97 -0.81,-5.22 -2.42,-6.74 -1.61,-1.53 -3.77,-2.67 -6.49,-3.43 -2.72,-0.76 -5.73,-1.44 -9.03,-2.04 -3.22,-0.59 -6.53,-1.38 -9.93,-2.36 -3.39,-0.98 -6.55,-2.38 -9.48,-4.2 -2.93,-1.82 -5.28,-4.22 -7.06,-7.19 -1.78,-2.97 -2.67,-6.74 -2.67,-11.33 0,-4.84 1.32,-9.14 3.95,-12.92 2.63,-3.77 6.19,-6.77 10.69,-8.97 4.5,-2.21 9.46,-3.31 14.89,-3.31 6.7,0 12.77,1.53 18.2,4.58 5.43,3.05 9.46,7.55 12.09,13.49l-11.96 5.98c-1.61,-3.31 -4.01,-5.92 -7.19,-7.83 -3.18,-1.91 -7.06,-2.86 -11.64,-2.86 -2.72,0 -5.18,0.47 -7.38,1.4 -2.2,0.93 -3.97,2.27 -5.28,4.01 -1.32,1.74 -1.97,3.71 -1.97,5.92 0,2.88 0.85,5.11 2.55,6.68 1.7,1.57 3.94,2.78 6.74,3.63 2.8,0.85 5.9,1.61 9.29,2.29 3.22,0.59 6.51,1.38 9.86,2.35 3.35,0.98 6.43,2.38 9.23,4.2 2.8,1.82 5.07,4.22 6.81,7.19 1.74,2.97 2.61,6.79 2.61,11.45 0,5.01 -1.38,9.42 -4.13,13.23 -2.76,3.82 -6.47,6.83 -11.14,9.04 -4.67,2.2 -9.92,3.31 -15.78,3.31z"/>
   <path id="_12" class="fil4" d="M1692.8 691.73l-9.16 0 4.58 -31.3 12.85 2.16 -8.27 29.14zm-0.38 -22.65c-1.53,0 -2.99,-0.4 -4.39,-1.21 -1.4,-0.81 -2.5,-1.91 -3.31,-3.31 -0.81,-1.4 -1.21,-2.91 -1.21,-4.52 0,-1.7 0.4,-3.2 1.21,-4.52 0.81,-1.31 1.91,-2.38 3.31,-3.18 1.4,-0.81 2.86,-1.21 4.39,-1.21 1.7,0 3.22,0.4 4.58,1.21 1.36,0.81 2.44,1.87 3.24,3.18 0.81,1.32 1.21,2.82 1.21,4.52 0,1.61 -0.4,3.12 -1.21,4.52 -0.81,1.4 -1.89,2.5 -3.24,3.31 -1.36,0.81 -2.89,1.21 -4.58,1.21z"/>
   <path id="_13" class="fil4" d="M1812.41 647.83l-49.76 0 0 -12.98 49.76 0 0 12.98zm-65.28 19.98l23.16 -74.57c1.36,-4.16 3.56,-7.25 6.62,-9.29 3.06,-2.04 6.4,-3.05 10.05,-3.05 3.73,0 7.1,1.02 10.12,3.05 3.01,2.04 5.15,5.13 6.43,9.29l23.16 74.57 -14.64 0 -20.74 -70.37c-0.76,-2.38 -2.2,-3.56 -4.33,-3.56 -2.12,0 -3.56,1.19 -4.33,3.56l-20.87 70.37 -14.63 0z"/>
   <path id="_14" class="fil4" d="M1853.01 582.42l0 72.03 41.74 0 0 13.36 -43.01 0c-4.75,0 -8.12,-1.14 -10.12,-3.44 -1.99,-2.29 -2.99,-5.39 -2.99,-9.29l0 -72.66 14.38 0z"/>
   <path id="_15" class="fil4" d="M1918.16 582.42l0 72.03 41.74 0 0 13.36 -43.01 0c-4.75,0 -8.12,-1.14 -10.12,-3.44 -1.99,-2.29 -2.99,-5.39 -2.99,-9.29l0 -72.66 14.38 0z"/>
   <path id="_16" class="fil4" d="M2081.04 624.93c0,6.62 -1.17,12.58 -3.5,17.88 -2.33,5.3 -5.58,9.82 -9.74,13.55 -4.16,3.73 -9.06,6.58 -14.7,8.53 -5.64,1.95 -11.77,2.93 -18.39,2.93l-29.65 0 0 -85.39 30.16 0c9.16,0 17.18,1.76 24.05,5.28 6.87,3.52 12.22,8.46 16.03,14.82 3.82,6.36 5.73,13.83 5.73,22.4zm-14.76 0c0,-5.85 -1.32,-10.97 -3.95,-15.34 -2.63,-4.37 -6.26,-7.76 -10.88,-10.18 -4.62,-2.42 -10.03,-3.63 -16.23,-3.63l-15.78 0 0 59.05 15.27 0c4.5,0 8.65,-0.7 12.47,-2.1 3.82,-1.4 7.17,-3.37 10.05,-5.92 2.88,-2.55 5.11,-5.68 6.68,-9.42 1.57,-3.73 2.35,-7.89 2.35,-12.47z"/>
   <path id="_17" class="fil4" d="M2150.39 647.83l-49.76 0 0 -12.98 49.76 0 0 12.98zm-65.28 19.98l23.16 -74.57c1.36,-4.16 3.56,-7.25 6.62,-9.29 3.06,-2.04 6.4,-3.05 10.05,-3.05 3.73,0 7.1,1.02 10.12,3.05 3.01,2.04 5.15,5.13 6.43,9.29l23.16 74.57 -14.64 0 -20.74 -70.37c-0.76,-2.38 -2.2,-3.56 -4.33,-3.56 -2.12,0 -3.56,1.19 -4.33,3.56l-20.87 70.37 -14.63 0z"/>
   <path id="_18" class="fil4" d="M2202.44 667.81l-14.38 0 0 -34.61 14.38 0 0 34.61zm-24.05 -38.05l-20.49 -47.34 15.4 0 18.2 43.52c0.59,1.19 1.14,2.12 1.65,2.8 0.51,0.68 1.23,1.02 2.16,1.02 0.85,0 1.55,-0.34 2.1,-1.02 0.55,-0.68 1.08,-1.61 1.59,-2.8l18.2 -43.52 15.4 0 -20.74 47.34c-1.78,4.24 -4.13,7.42 -7.06,9.55 -2.93,2.12 -6.13,3.18 -9.61,3.18 -3.48,0 -6.66,-1.06 -9.55,-3.18 -2.88,-2.12 -5.3,-5.3 -7.25,-9.55z"/>
  </g>
 </g>
</svg>
